<?xml version="1.0" encoding="UTF-8"?>
<svg xmlns="http://www.w3.org/2000/svg" xmlns:xlink="http://www.w3.org/1999/xlink" width="50pt" height="50pt" viewBox="0 0 50 50" version="1.1">
<g id="surface947566">
<path style=" stroke:none;fill-rule:nonzero;fill:rgb(0%,0%,0%);fill-opacity:1;" d="M 27.734375 8.878906 C 27.703125 8.882812 27.675781 8.890625 27.648438 8.898438 L 15.550781 8.898438 C 14.210938 8.898438 13.101562 9.992188 13.101562 11.328125 L 13.101562 38.234375 C 13.101562 39.8125 14.40625 41.101562 15.988281 41.101562 L 34.011719 41.101562 C 35.59375 41.101562 36.898438 39.8125 36.898438 38.234375 L 36.898438 18.132812 C 36.917969 18.039062 36.917969 17.941406 36.898438 17.847656 L 36.898438 17.648438 C 36.90625 17.464844 36.835938 17.28125 36.703125 17.148438 L 28.652344 9.097656 C 28.519531 8.964844 28.335938 8.894531 28.148438 8.898438 L 27.929688 8.898438 C 27.867188 8.882812 27.800781 8.875 27.734375 8.878906 Z M 15.550781 10.300781 L 27.101562 10.300781 L 27.101562 16.140625 C 27.101562 17.546875 28.25 18.699219 29.660156 18.699219 L 35.5 18.699219 L 35.5 38.234375 C 35.5 39.050781 34.839844 39.699219 34.011719 39.699219 L 15.988281 39.699219 C 15.160156 39.699219 14.5 39.050781 14.5 38.234375 L 14.5 11.328125 C 14.5 10.75 14.960938 10.300781 15.550781 10.300781 Z M 28.5 10.957031 L 34.84375 17.300781 L 29.660156 17.300781 C 29.007812 17.300781 28.5 16.792969 28.5 16.140625 Z M 19.398438 25 C 19.015625 25 18.699219 25.3125 18.699219 25.699219 C 18.699219 26.085938 19.015625 26.398438 19.398438 26.398438 C 19.785156 26.398438 20.101562 26.085938 20.101562 25.699219 C 20.101562 25.3125 19.785156 25 19.398438 25 Z M 22.199219 25 L 22.199219 26.398438 L 30.601562 26.398438 L 30.601562 25 Z M 19.398438 28.5 C 19.015625 28.5 18.699219 28.8125 18.699219 29.199219 C 18.699219 29.585938 19.015625 29.898438 19.398438 29.898438 C 19.785156 29.898438 20.101562 29.585938 20.101562 29.199219 C 20.101562 28.8125 19.785156 28.5 19.398438 28.5 Z M 22.199219 28.5 L 22.199219 29.898438 L 30.601562 29.898438 L 30.601562 28.5 Z M 19.398438 32 C 19.015625 32 18.699219 32.3125 18.699219 32.699219 C 18.699219 33.085938 19.015625 33.398438 19.398438 33.398438 C 19.785156 33.398438 20.101562 33.085938 20.101562 32.699219 C 20.101562 32.3125 19.785156 32 19.398438 32 Z M 22.199219 32 L 22.199219 33.398438 L 30.601562 33.398438 L 30.601562 32 Z M 22.199219 32 "/>
</g>
</svg>
